<svg xmlns="http://www.w3.org/2000/svg" xmlns:xlink="http://www.w3.org/1999/xlink" xmlns:svgjs="http://svgjs.com/svgjs" version="1.1" width="512" height="512" x="0" y="0" viewBox="0 0 512 512" style="enable-background:new 0 0 512 512" xml:space="preserve"><g><path xmlns="http://www.w3.org/2000/svg" d="m272 400h32v16h-32zm0 0" fill="#001D3D" data-original="#000000" style=""/><path xmlns="http://www.w3.org/2000/svg" d="m256 432h64v16h-64zm0 0" fill="#001D3D" data-original="#000000" style=""/><path xmlns="http://www.w3.org/2000/svg" d="m448 144v-64c.050781-28.601562-15.195312-55.042969-39.972656-69.328125s-55.304688-14.226563-80.027344.152344c-24.722656-14.378907-55.25-14.4375-80.027344-.152344s-40.023437 40.726563-39.972656 69.328125v64h-48v192h-16v-32c-.027344-26.5-21.5-47.972656-48-48h-8v50.953125c.003906 1.644531-.5 3.246094-1.449219 4.589844l-20.328125 29.039062c-1.496094 2.144531-3.945312 3.417969-6.558594 3.417969h-19.664062v-16h-40v16h24v128h-24v16h40v-24h26.113281l32 16h61.886719v32h352v-368zm-80-128c35.328125.039062 63.960938 28.671875 64 64v64h-64v-64c-.011719-22.257812-9.328125-43.492188-25.695312-58.574219 8.09375-3.578125 16.847656-5.425781 25.695312-5.425781zm-40 14.121094c15.164062 12.113281 23.996094 30.46875 24 49.878906v64h-48v-64c.003906-19.410156 8.835938-37.765625 24-49.878906zm-104 49.878906c-.023438-21.613281 10.875-41.777344 28.972656-53.597656 18.097656-11.816406 40.941406-13.691406 60.722656-4.976563-16.367187 15.082031-25.683593 36.316407-25.695312 58.574219v64h-64zm-56 352h-16v16h16v8c0 4.417969-3.582031 8-8 8h-58.113281l-32-16h-29.886719v-88h19.664062c7.832032-.003906 15.175782-3.828125 19.671876-10.238281l20.328124-29.035157c2.832032-4.035156 4.347657-8.84375 4.335938-13.773437v-33.9375c14.117188 3.664063 23.984375 16.398437 24 30.984375v48h80c4.417969 0 8 3.582031 8 8s-3.582031 8-8 8h-40v16h32v8c0 4.417969-3.582031 8-8 8h-40v16h32v8c0 4.417969-3.582031 8-8 8zm232 64h-224v-22.238281c5.070312-4.515625 7.980469-10.972657 8-17.761719v-9.367188c9.582031-3.402343 15.988281-12.464843 16-22.632812v-9.367188c9.582031-3.402343 15.988281-12.464843 16-22.632812v-9.367188c11.027344-3.890624 17.644531-15.164062 15.667969-26.691406-1.976563-11.523437-11.972657-19.949218-23.667969-19.941406h-32v-176h32v32h-16v16h48v-16h-16v-32h128v32h-16v16h48v-16h-16v-32h32zm16-336h32v277.519531l-32 46.542969zm11.199219 336 29.074219-42.289062 31.726562 42.289062zm68.800781-16-32-42.664062v-277.335938h32zm0 0" fill="#001D3D" data-original="#000000" style=""/><path xmlns="http://www.w3.org/2000/svg" d="m288 242.167969c-21.125-15.574219-50.683594-12.242188-67.808594 7.648437-17.125 19.886719-16.035156 49.613282 2.503906 68.191406l65.304688 65.304688 65.304688-65.304688c18.539062-18.578124 19.628906-48.304687 2.503906-68.191406-17.125-19.890625-46.683594-23.222656-67.808594-7.648437zm53.992188 64.527343-53.992188 53.992188-53.992188-53.992188c-12.753906-13.441406-12.472656-34.601562.636719-47.699218s34.265625-13.363282 47.699219-.597656l5.65625 5.601562 5.65625-5.65625c13.347656-13.347656 34.988281-13.347656 48.335938 0 13.347656 13.347656 13.347656 34.988281 0 48.335938zm0 0" fill="#001D3D" data-original="#000000" style=""/><path xmlns="http://www.w3.org/2000/svg" d="m0 1h192v16h-192zm0 0" fill="#001D3D" data-original="#000000" style=""/><path xmlns="http://www.w3.org/2000/svg" d="m0 32h144v16h-144zm0 0" fill="#001D3D" data-original="#000000" style=""/><path xmlns="http://www.w3.org/2000/svg" d="m0 64h96v16h-96zm0 0" fill="#001D3D" data-original="#000000" style=""/></g></svg>
